<?xml version="1.0" encoding="UTF-8"?>
<svg xmlns="http://www.w3.org/2000/svg" width="129" height="72" viewBox="0 0 129 72" fill="none"><g clip-path="url(#clip0_1354_3252)"><path d="M31.7193 32.1884H37.7221L38.8732 42.4901H46.751L40.8696 0.356463H29.7122L23.8307 42.4901H30.5679L31.7193 32.1884ZM34.8454 6.45196L37.1036 26.6634H32.3358L34.594 6.45196H34.8434H34.8454ZM56.6608 23.7403H58.1935C60.1184 23.7403 61.1879 24.5958 61.2591 27.8753L61.4729 35.8956C61.5443 37.9632 61.7581 40.1732 62.079 42.4901H69.7429C69.4221 40.2802 69.2083 38.3196 69.0657 35.753L68.6379 28.2317C68.3902 24.079 67.2851 21.8992 64.1821 20.8084C68.3348 19.5715 69.5289 16.8553 69.5289 12.6544V11.4424C69.5289 4.17061 66.4635 0.356463 57.9797 0.356463H48.9968V42.4901H56.6608V23.7403ZM61.8652 10.7295V13.3673C61.8652 17.1815 60.8313 18.2152 57.9797 18.2152H56.6608V5.88161H57.9797C60.8313 5.88161 61.8652 6.91535 61.8652 10.7295ZM13.921 42.4901V23.7403H7.7899V42.4901H0.125977V0.356463H7.7899V18.2152H13.921V0.356463H21.585V42.4901H13.921ZM105.14 42.4901H97.4756V0.356463H105.14V42.4901ZM128.595 31.9746V33.2934C128.595 39.2465 124.495 43.2032 118.649 43.2032C111.984 43.2032 108.348 39.5671 108.348 33.1508V27.8753H115.94V33.6143C115.94 36.3947 116.831 37.4998 118.436 37.4998C120.04 37.4998 120.931 36.3947 120.931 33.6143V33.0796C120.931 31.4755 120.218 29.9072 118.186 27.3762L113.089 20.9956C110.023 17.1815 108.526 13.6525 108.526 10.8721V9.90963C108.526 3.95671 112.483 0 118.293 0C124.852 0 128.416 4.20625 128.416 10.2304V14.2585H120.824V9.58881C120.824 6.8084 120.111 5.70338 118.507 5.70338C116.903 5.70338 116.19 6.8084 116.19 9.58881V9.76704C116.19 11.2642 116.831 12.8326 119.006 15.5774L124.103 21.958C127.24 25.8791 128.595 29.123 128.595 31.9746ZM80.9002 23.7403H82.4329C84.3578 23.7403 85.4273 24.5958 85.4985 27.8753L85.7123 35.8956C85.7837 37.9632 85.9975 40.1732 86.3184 42.4901H93.9823C93.6615 40.2802 93.4475 38.3196 93.3051 35.753L92.8773 28.2317C92.6296 24.079 91.5245 21.8992 88.4215 20.8084C92.5742 19.5715 93.7683 16.8553 93.7683 12.6544V11.4424C93.7683 4.17061 90.7029 0.356463 82.2191 0.356463H73.2362V42.4901H80.9002V23.7403ZM86.1046 10.7295V13.3673C86.1046 17.1815 85.0707 18.2152 82.2191 18.2152H80.9002V5.88161H82.2191C85.0707 5.88161 86.1046 6.91535 86.1046 10.7295Z" fill="white"/><path d="M56.4114 48.0867L49.5673 71.2922H55.2351L56.4933 66.3374H63.316L64.5744 71.2922H71.3827L64.5388 48.0867H56.4114ZM57.634 61.8461L59.8334 53.184H59.9761L62.1753 61.8461H57.634ZM91.808 48.0867H108.669V52.7562L99.2223 66.4444H108.669V71.2922H91.808V66.6226L101.254 52.9344H91.808V48.0867ZM80.3656 66.4444H89.0632V71.2922H73.7711V48.0867H80.3656V66.4444ZM50.6368 48.0867L45.3968 71.2922H37.7328L34.8812 54.6811H34.7386L31.8512 71.2922H23.7238L18.4839 48.0867H24.9715L28.1083 64.8759H28.2509L31.3521 48.0867H38.7309L41.8321 64.8759H41.9747L45.1116 48.0867H50.6368Z" fill="white"/></g><defs><clipPath id="clip0_1354_3252"><rect width="128.72" height="71.43" fill="white"/></clipPath></defs></svg>